<svg xmlns="http://www.w3.org/2000/svg" width="620.58935546875" height="382.4006652832031" viewBox="-318.90216064453125 -107.9218521118164 620.58935546875 382.4006652832031"><title>Neo4j Graph Visualization</title><desc>Created using Neo4j (http://www.neo4j.com/)</desc><g class="layer relationships"><g class="relationship" transform="translate(-211.4129947401096 80.38213614605529) rotate(383.50504871102504)"><path class="outline" fill="#A5ABB6" stroke="none" d="M 38.50762352901147,10.835724717245364 L 38.766442574113995,9.869798890956295 A 235.3664338238163 235.3664338238163 0 0 0 82.97916807129687,17.296182381877344 L 82.90819537615553,18.293660640559892 A 236.3664338238163 236.3664338238163 0 0 1 38.50762352901147,10.835724717245364 Z M 112.37222276377875,18.548903110926062 L 112.31854143376529,17.550344993034088 A 235.3664338238163 235.3664338238163 0 0 0 156.65328919027417,10.891035043031822 L 155.9271508445574,7.980240803845599 L 163.56616547266148,9.681844609557048 L 157.62147365122985,14.772094028613452 L 156.89533530551307,11.86129978942723 A 236.3664338238163 236.3664338238163 0 0 1 112.37222276377875,18.548903110926062"/><text text-anchor="middle" pointer-events="none" font-size="8px" fill="#000000" x="97.64055918800996" y="21.38086584471219" font-family="sans-serif">affects</text></g><g class="relationship" transform="translate(-53.47652444791877 75.5934699743087) rotate(358.5327988993005)"><path class="outline" fill="#A5ABB6" stroke="none" d="M 40 0.5 L 61.736015652714684 0.5 L 61.736015652714684 -0.5 L 40 -0.5 Z M 91.15789065271468 0.5 L 112.89390630542937 0.5 L 112.89390630542937 3.5 L 119.89390630542937 0 L 112.89390630542937 -3.5 L 112.89390630542937 -0.5 L 91.15789065271468 -0.5 Z"/><text text-anchor="middle" pointer-events="none" font-size="8px" fill="#000000" x="76.44695315271468" y="3" font-family="sans-serif">affects</text></g><g class="relationship" transform="translate(-53.47652444791877 75.5934699743087) rotate(538.2633122710971)"><path class="outline" fill="#A5ABB6" stroke="none" d="M 40 0.5 L 60.79358764264691 0.5 L 60.79358764264691 -0.5 L 40 -0.5 Z M 90.21546264264691 0.5 L 111.00905028529382 0.5 L 111.00905028529382 3.5 L 118.00905028529382 0 L 111.00905028529382 -3.5 L 111.00905028529382 -0.5 L 90.21546264264691 -0.5 Z"/><text text-anchor="middle" pointer-events="none" font-size="8px" fill="#000000" x="75.50452514264691" y="3" transform="rotate(180 75.50452514264691 0)" font-family="sans-serif">affects</text></g><g class="relationship" transform="translate(-25.82846396081033 161.0960323022311) rotate(325.87180001635534)"><path class="outline" fill="#A5ABB6" stroke="none" d="M 40 0.5 L 61.636810499044614 0.5 L 61.636810499044614 -0.5 L 40 -0.5 Z M 91.05868549904461 0.5 L 112.69549599808923 0.5 L 112.69549599808923 3.5 L 119.69549599808923 0 L 112.69549599808923 -3.5 L 112.69549599808923 -0.5 L 91.05868549904461 -0.5 Z"/><text text-anchor="middle" pointer-events="none" font-size="8px" fill="#000000" x="76.34774799904461" y="3" font-family="sans-serif">affects</text></g><g class="relationship" transform="translate(-25.82846396081033 161.0960323022311) rotate(203.50504871102504)"><path class="outline" fill="#A5ABB6" stroke="none" d="M 38.50762352901147,10.835724717245364 L 38.766442574113995,9.869798890956295 A 235.3664338238163 235.3664338238163 0 0 0 82.97916807129687,17.296182381877344 L 82.90819537615553,18.293660640559892 A 236.3664338238163 236.3664338238163 0 0 1 38.50762352901147,10.835724717245364 Z M 112.37222276377875,18.548903110926062 L 112.31854143376529,17.550344993034088 A 235.3664338238163 235.3664338238163 0 0 0 156.65328919027417,10.891035043031822 L 155.9271508445574,7.980240803845599 L 163.56616547266148,9.681844609557048 L 157.62147365122985,14.772094028613452 L 156.89533530551307,11.86129978942723 A 236.3664338238163 236.3664338238163 0 0 1 112.37222276377875,18.548903110926062"/><text text-anchor="middle" pointer-events="none" font-size="8px" fill="#000000" x="97.64055918800996" y="21.38086584471219" transform="rotate(180 97.64055918800996 18.38086584471219)" font-family="sans-serif">affects</text></g><g class="relationship" transform="translate(-36.987961140417454 -12.614028210512922) rotate(390.40261790158894)"><path class="outline" fill="#A5ABB6" stroke="none" d="M 40 0.5 L 64.89311601305285 0.5 L 64.89311601305285 -0.5 L 40 -0.5 Z M 94.31499101305285 0.5 L 119.2081070261057 0.5 L 119.2081070261057 3.5 L 126.2081070261057 0 L 119.2081070261057 -3.5 L 119.2081070261057 -0.5 L 94.31499101305285 -0.5 Z"/><text text-anchor="middle" pointer-events="none" font-size="8px" fill="#000000" x="79.60405351305285" y="3" font-family="sans-serif">affects</text></g><g class="relationship" transform="translate(-36.987961140417454 -12.614028210512922) rotate(511.93531887180274)"><path class="outline" fill="#A5ABB6" stroke="none" d="M 40 0.5 L 80.6227345597889 0.5 L 80.6227345597889 -0.5 L 40 -0.5 Z M 110.0446095597889 0.5 L 150.6673441195778 0.5 L 150.6673441195778 3.5 L 157.6673441195778 0 L 150.6673441195778 -3.5 L 150.6673441195778 -0.5 L 110.0446095597889 -0.5 Z"/><text text-anchor="middle" pointer-events="none" font-size="8px" fill="#000000" x="95.3336720597889" y="3" transform="rotate(180 95.3336720597889 0)" font-family="sans-serif">affects</text></g><g class="relationship" transform="translate(-130.71209397625734 -41.265053561334774) rotate(483.5603462131522)"><path class="outline" fill="#A5ABB6" stroke="none" d="M 40 0.5 L 54.779942320363304 0.5 L 54.779942320363304 -0.5 L 40 -0.5 Z M 84.2018173203633 0.5 L 98.98175964072661 0.5 L 98.98175964072661 3.5 L 105.98175964072661 0 L 98.98175964072661 -3.5 L 98.98175964072661 -0.5 L 84.2018173203633 -0.5 Z"/><text text-anchor="middle" pointer-events="none" font-size="8px" fill="#000000" x="69.4908798203633" y="3" transform="rotate(180 69.4908798203633 0)" font-family="sans-serif">affects</text></g><g class="relationship" transform="translate(-219.18087072079342 -57.7786480384076) rotate(446.782021494175)"><path class="outline" fill="#A5ABB6" stroke="none" d="M 40 0.5 L 50.978552640694446 0.5 L 50.978552640694446 -0.5 L 40 -0.5 Z M 80.40042764069445 0.5 L 91.37898028138889 0.5 L 91.37898028138889 3.5 L 98.37898028138889 0 L 91.37898028138889 -3.5 L 91.37898028138889 -0.5 L 80.40042764069445 -0.5 Z"/><text text-anchor="middle" pointer-events="none" font-size="8px" fill="#000000" x="65.68949014069445" y="3" font-family="sans-serif">affects</text></g><g class="relationship" transform="translate(-274.90216478042856 197.1349520437261) rotate(298.53696460744095)"><path class="outline" fill="#A5ABB6" stroke="none" d="M 40 0.5 L 48.238469443260115 0.5 L 48.238469443260115 -0.5 L 40 -0.5 Z M 77.66034444326012 0.5 L 85.89881388652023 0.5 L 85.89881388652023 3.5 L 92.89881388652023 0 L 85.89881388652023 -3.5 L 85.89881388652023 -0.5 L 77.66034444326012 -0.5 Z"/><text text-anchor="middle" pointer-events="none" font-size="8px" fill="#000000" x="62.949406943260115" y="3" font-family="sans-serif">affects</text></g><g class="relationship" transform="translate(-191.31256829175268 230.47880257456598) rotate(262.3725274551509)"><path class="outline" fill="#A5ABB6" stroke="none" d="M 40 0.5 L 57.50735027837857 0.5 L 57.50735027837857 -0.5 L 40 -0.5 Z M 86.92922527837857 0.5 L 104.43657555675713 0.5 L 104.43657555675713 3.5 L 111.43657555675713 0 L 104.43657555675713 -3.5 L 104.43657555675713 -0.5 L 86.92922527837857 -0.5 Z"/><text text-anchor="middle" pointer-events="none" font-size="8px" fill="#000000" x="72.21828777837857" y="3" transform="rotate(180 72.21828777837857 0)" font-family="sans-serif">affects</text></g><g class="relationship" transform="translate(-111.19251309772353 189.57683264448346) rotate(227.453834675709)"><path class="outline" fill="#A5ABB6" stroke="none" d="M 40 0.5 L 55.89646206984 0.5 L 55.89646206984 -0.5 L 40 -0.5 Z M 85.31833706984 0.5 L 101.21479913968 0.5 L 101.21479913968 3.5 L 108.21479913968 0 L 101.21479913968 -3.5 L 101.21479913968 -0.5 L 85.31833706984 -0.5 Z"/><text text-anchor="middle" pointer-events="none" font-size="8px" fill="#000000" x="70.60739956984" y="3" transform="rotate(180 70.60739956984 0)" font-family="sans-serif">affects</text></g><g class="relationship" transform="translate(159.8109959904444 -63.92185045704065) rotate(471.53741230556085)"><path class="outline" fill="#A5ABB6" stroke="none" d="M 40 0.5 L 54.582268816553 0.5 L 54.582268816553 -0.5 L 40 -0.5 Z M 84.004143816553 0.5 L 98.586412633106 0.5 L 98.586412633106 3.5 L 105.586412633106 0 L 98.586412633106 -3.5 L 98.586412633106 -0.5 L 84.004143816553 -0.5 Z"/><text text-anchor="middle" pointer-events="none" font-size="8px" fill="#000000" x="69.293206316553" y="3" transform="rotate(180 69.293206316553 0)" font-family="sans-serif">affects</text></g><g class="relationship" transform="translate(257.6871659981191 81.79301981712419) rotate(183.89150908974557)"><path class="outline" fill="#A5ABB6" stroke="none" d="M 40 0.5 L 57.62501685540988 0.5 L 57.62501685540988 -0.5 L 40 -0.5 Z M 87.04689185540988 0.5 L 104.67190871081976 0.5 L 104.67190871081976 3.5 L 111.67190871081976 0 L 104.67190871081976 -3.5 L 104.67190871081976 -0.5 L 87.04689185540988 -0.5 Z"/><text text-anchor="middle" pointer-events="none" font-size="8px" fill="#000000" x="72.33595435540988" y="3" transform="rotate(180 72.33595435540988 0)" font-family="sans-serif">affects</text></g><g class="relationship" transform="translate(226.67574665635246 166.26726777150648) rotate(218.22721778755636)"><path class="outline" fill="#A5ABB6" stroke="none" d="M 40 0.5 L 58.3652130770475 0.5 L 58.3652130770475 -0.5 L 40 -0.5 Z M 87.7870880770475 0.5 L 106.152301154095 0.5 L 106.152301154095 3.5 L 113.152301154095 0 L 106.152301154095 -3.5 L 106.152301154095 -0.5 L 87.7870880770475 -0.5 Z"/><text text-anchor="middle" pointer-events="none" font-size="8px" fill="#000000" x="73.0761505770475" y="3" transform="rotate(180 73.0761505770475 0)" font-family="sans-serif">affects</text></g><g class="relationship" transform="translate(234.57097444432713 -5.1793530198041315) rotate(509.11676046922247)"><path class="outline" fill="#A5ABB6" stroke="none" d="M 40 0.5 L 56.48246715340916 0.5 L 56.48246715340916 -0.5 L 40 -0.5 Z M 85.90434215340916 0.5 L 102.38680930681832 0.5 L 102.38680930681832 3.5 L 109.38680930681832 0 L 102.38680930681832 -3.5 L 102.38680930681832 -0.5 L 85.90434215340916 -0.5 Z"/><text text-anchor="middle" pointer-events="none" font-size="8px" fill="#000000" x="71.19340465340916" y="3" transform="rotate(180 71.19340465340916 0)" font-family="sans-serif">affects</text></g><g class="relationship" transform="translate(150.79403580855117 214.65480187577117) rotate(252.75797532516071)"><path class="outline" fill="#A5ABB6" stroke="none" d="M 40 0.5 L 56.734712139264644 0.5 L 56.734712139264644 -0.5 L 40 -0.5 Z M 86.15658713926464 0.5 L 102.89129927852929 0.5 L 102.89129927852929 3.5 L 109.89129927852929 0 L 102.89129927852929 -3.5 L 102.89129927852929 -0.5 L 86.15658713926464 -0.5 Z"/><text text-anchor="middle" pointer-events="none" font-size="8px" fill="#000000" x="71.44564963926464" y="3" transform="rotate(180 71.44564963926464 0)" font-family="sans-serif">affects</text></g></g><g class="layer nodes"><g class="node" transform="translate(-211.4129947401096,80.38213614605529)"><circle class="outline" cx="0" cy="0" r="40" fill="#8DCC93" stroke="#5db665" stroke-width="2px"/><text text-anchor="middle" pointer-events="none" font-family="sans-serif" dy="2.5" font-size="40" fill="#2A2C34"/><text text-anchor="middle" pointer-events="none" x="0" y="5" font-size="10px" fill="#2A2C34" font-family="sans-serif"> Respiration</text></g><g class="node" transform="translate(106.36496002382675,71.49943584179793)"><circle class="outline" cx="0" cy="0" r="40" fill="#8DCC93" stroke="#5db665" stroke-width="2px"/><text text-anchor="middle" pointer-events="none" font-family="sans-serif" dy="2.5" font-size="40" fill="#2A2C34"/><text text-anchor="middle" pointer-events="none" x="0" y="5" font-size="10px" fill="#2A2C34" font-family="sans-serif"> Water quality</text></g><g class="node" transform="translate(-53.47652444791877,75.5934699743087)"><circle class="outline" cx="0" cy="0" r="40" fill="#F16667" stroke="#eb2728" stroke-width="2px"/><text text-anchor="middle" pointer-events="none" font-family="sans-serif" dy="2.5" font-size="40" fill="#FFFFFF"/><text text-anchor="middle" pointer-events="none" x="0" y="5" font-size="10px" fill="#FFFFFF" font-family="sans-serif"> water - nitrite</text></g><g class="node" transform="translate(-25.82846396081033,161.0960323022311)"><circle class="outline" cx="0" cy="0" r="40" fill="#F16667" stroke="#eb2728" stroke-width="2px"/><text text-anchor="middle" pointer-events="none" font-family="sans-serif" dy="2.5" font-size="40" fill="#FFFFFF"/><text text-anchor="middle" pointer-events="none" font-family="sans-serif" dy="2.5" font-size="40" fill="#FFFFFF"/><text text-anchor="middle" pointer-events="none" x="0" y="0" font-size="10px" fill="#FFFFFF" font-family="sans-serif"> water - disolved</text><text text-anchor="middle" pointer-events="none" x="0" y="10" font-size="10px" fill="#FFFFFF" font-family="sans-serif"> carbon dioxide</text></g><g class="node" transform="translate(-36.987961140417454,-12.614028210512922)"><circle class="outline" cx="0" cy="0" r="40" fill="#F16667" stroke="#eb2728" stroke-width="2px"/><text text-anchor="middle" pointer-events="none" font-family="sans-serif" dy="2.5" font-size="40" fill="#FFFFFF"/><text text-anchor="middle" pointer-events="none" font-family="sans-serif" dy="2.5" font-size="40" fill="#FFFFFF"/><text text-anchor="middle" pointer-events="none" x="0" y="0" font-size="10px" fill="#FFFFFF" font-family="sans-serif"> water -</text><text text-anchor="middle" pointer-events="none" x="0" y="10" font-size="10px" fill="#FFFFFF" font-family="sans-serif"> temperature</text></g><g class="node" transform="translate(-130.71209397625734,-41.265053561334774)"><circle class="outline" cx="0" cy="0" r="40" fill="#F16667" stroke="#eb2728" stroke-width="2px"/><text text-anchor="middle" pointer-events="none" font-family="sans-serif" dy="2.5" font-size="40" fill="#FFFFFF"/><text text-anchor="middle" pointer-events="none" font-family="sans-serif" dy="2.5" font-size="40" fill="#FFFFFF"/><text text-anchor="middle" pointer-events="none" x="0" y="0" font-size="10px" fill="#FFFFFF" font-family="sans-serif"> individual - gill</text><text text-anchor="middle" pointer-events="none" x="0" y="10" font-size="10px" fill="#FFFFFF" font-family="sans-serif"> cover</text></g><g class="node" transform="translate(-219.18087072079342,-57.7786480384076)"><circle class="outline" cx="0" cy="0" r="40" fill="#F16667" stroke="#eb2728" stroke-width="2px"/><text text-anchor="middle" pointer-events="none" font-family="sans-serif" dy="2.5" font-size="40" fill="#FFFFFF"/><text text-anchor="middle" pointer-events="none" font-family="sans-serif" dy="2.5" font-size="40" fill="#FFFFFF"/><text text-anchor="middle" pointer-events="none" x="0" y="0" font-size="10px" fill="#FFFFFF" font-family="sans-serif"> individual -</text><text text-anchor="middle" pointer-events="none" x="0" y="10" font-size="10px" fill="#FFFFFF" font-family="sans-serif"> cardiac activity</text></g><g class="node" transform="translate(-274.90216478042856,197.1349520437261)"><circle class="outline" cx="0" cy="0" r="40" fill="#F16667" stroke="#eb2728" stroke-width="2px"/><text text-anchor="middle" pointer-events="none" font-family="sans-serif" dy="2.5" font-size="40" fill="#FFFFFF"/><text text-anchor="middle" pointer-events="none" font-family="sans-serif" dy="2.5" font-size="40" fill="#FFFFFF"/><text text-anchor="middle" pointer-events="none" x="0" y="0" font-size="10px" fill="#FFFFFF" font-family="sans-serif"> organs - gill</text><text text-anchor="middle" pointer-events="none" x="0" y="10" font-size="10px" fill="#FFFFFF" font-family="sans-serif"> hypertrophy</text></g><g class="node" transform="translate(-191.31256829175268,230.47880257456598)"><circle class="outline" cx="0" cy="0" r="40" fill="#F16667" stroke="#eb2728" stroke-width="2px"/><text text-anchor="middle" pointer-events="none" font-family="sans-serif" dy="2.5" font-size="40" fill="#FFFFFF"/><text text-anchor="middle" pointer-events="none" font-family="sans-serif" dy="2.5" font-size="40" fill="#FFFFFF"/><text text-anchor="middle" pointer-events="none" x="0" y="0" font-size="10px" fill="#FFFFFF" font-family="sans-serif"> individual - jaw</text><text text-anchor="middle" pointer-events="none" x="0" y="10" font-size="10px" fill="#FFFFFF" font-family="sans-serif"> deformation</text></g><g class="node" transform="translate(-111.19251309772353,189.57683264448346)"><circle class="outline" cx="0" cy="0" r="40" fill="#F16667" stroke="#eb2728" stroke-width="2px"/><text text-anchor="middle" pointer-events="none" font-family="sans-serif" dy="2.5" font-size="40" fill="#FFFFFF"/><text text-anchor="middle" pointer-events="none" font-family="sans-serif" dy="2.5" font-size="40" fill="#FFFFFF"/><text text-anchor="middle" pointer-events="none" x="0" y="0" font-size="10px" fill="#FFFFFF" font-family="sans-serif"> plant - catching</text><text text-anchor="middle" pointer-events="none" x="0" y="10" font-size="10px" fill="#FFFFFF" font-family="sans-serif"> methods</text></g><g class="node" transform="translate(159.8109959904444,-63.92185045704065)"><circle class="outline" cx="0" cy="0" r="40" fill="#F16667" stroke="#eb2728" stroke-width="2px"/><text text-anchor="middle" pointer-events="none" font-family="sans-serif" dy="2.5" font-size="40" fill="#FFFFFF"/><text text-anchor="middle" pointer-events="none" x="0" y="5" font-size="10px" fill="#FFFFFF" font-family="sans-serif"> water - nitrate</text></g><g class="node" transform="translate(257.6871659981191,81.79301981712419)"><circle class="outline" cx="0" cy="0" r="40" fill="#F16667" stroke="#eb2728" stroke-width="2px"/><text text-anchor="middle" pointer-events="none" font-family="sans-serif" dy="2.5" font-size="40" fill="#FFFFFF"/><text text-anchor="middle" pointer-events="none" font-family="sans-serif" dy="2.5" font-size="40" fill="#FFFFFF"/><text text-anchor="middle" pointer-events="none" x="0" y="0" font-size="10px" fill="#FFFFFF" font-family="sans-serif"> water -</text><text text-anchor="middle" pointer-events="none" x="0" y="10" font-size="10px" fill="#FFFFFF" font-family="sans-serif"> exchange rate</text></g><g class="node" transform="translate(226.67574665635246,166.26726777150648)"><circle class="outline" cx="0" cy="0" r="40" fill="#F16667" stroke="#eb2728" stroke-width="2px"/><text text-anchor="middle" pointer-events="none" font-family="sans-serif" dy="2.5" font-size="40" fill="#FFFFFF"/><text text-anchor="middle" pointer-events="none" x="0" y="5" font-size="10px" fill="#FFFFFF" font-family="sans-serif"> water - CSB</text></g><g class="node" transform="translate(234.57097444432713,-5.1793530198041315)"><circle class="outline" cx="0" cy="0" r="40" fill="#F16667" stroke="#eb2728" stroke-width="2px"/><text text-anchor="middle" pointer-events="none" font-family="sans-serif" dy="2.5" font-size="40" fill="#FFFFFF"/><text text-anchor="middle" pointer-events="none" font-family="sans-serif" dy="2.5" font-size="40" fill="#FFFFFF"/><text text-anchor="middle" pointer-events="none" x="0" y="0" font-size="10px" fill="#FFFFFF" font-family="sans-serif"> plant - daily</text><text text-anchor="middle" pointer-events="none" x="0" y="10" font-size="10px" fill="#FFFFFF" font-family="sans-serif"> check</text></g><g class="node" transform="translate(150.79403580855117,214.65480187577117)"><circle class="outline" cx="0" cy="0" r="40" fill="#F16667" stroke="#eb2728" stroke-width="2px"/><text text-anchor="middle" pointer-events="none" font-family="sans-serif" dy="2.5" font-size="40" fill="#FFFFFF"/><text text-anchor="middle" pointer-events="none" font-family="sans-serif" dy="2.5" font-size="40" fill="#FFFFFF"/><text text-anchor="middle" pointer-events="none" x="0" y="0" font-size="10px" fill="#FFFFFF" font-family="sans-serif"> water - disolved</text><text text-anchor="middle" pointer-events="none" x="0" y="10" font-size="10px" fill="#FFFFFF" font-family="sans-serif"> nitrogen</text></g></g></svg>